<?xml version="1.0" encoding="UTF-8"?>
<svg id="Layer_1" data-name="Layer 1" xmlns="http://www.w3.org/2000/svg" viewBox="0 0 180 180">
  <defs>
    <style>
      .cls-1 {
        fill: #020202;
      }

      .cls-1, .cls-2, .cls-3, .cls-4, .cls-5, .cls-6, .cls-7, .cls-8, .cls-9, .cls-10 {
        stroke-width: 0px;
      }

      .cls-2 {
        fill: #7a5fa7;
      }

      .cls-3 {
        fill: #010101;
      }

      .cls-4 {
        fill: #7a60a7;
      }

      .cls-5 {
        fill: #7a5fa5;
      }

      .cls-6 {
        fill: #8067ad;
      }

      .cls-7 {
        fill: #fff;
      }

      .cls-8 {
        fill: #8063ab;
      }

      .cls-9 {
        fill: #8669ab;
      }

      .cls-10 {
        fill: #7d5fa9;
      }
    </style>
  </defs>
  <path class="cls-3" d="M82.65,148.77c-.81-.13-1.4.09-2.06.72-4.04,3.82-7.83,7.86-11.51,12.06-3.98,4.54-8.5,8.61-12.79,12.87-1.53,1.52-2.57,3.48-4.29,4.81-.49.37-.88,1.29-1.66.37-.69-9.57-.14-19.15-.3-28.72-.01-.7.2-1.42-.24-2.07-.94-.24-1.88-.23-2.83-.05-1.69.41-3.4.17-5.09.18-7.7.03-15.39.02-23.09,0-.77,0-1.56.16-2.3-.18-.93-.33-2.02.24-2.86-.55-.38-.84-.19-1.73-.19-2.59-.01-36.89-.01-73.77.01-110.66,0-.87-.44-1.88.43-2.63,4.81-4.37,9.37-9,13.67-13.9,2.85-3.25,6.05-6.17,9.03-9.31,2.1-2.21,4.5-4.12,6.2-6.73.94-1.43,2.36-1.74,4.08-1.73,37.28.05,74.55.04,111.83.04.83,0,1.74-.28,2.37.58.36.76.19,1.56.19,2.35,0,28.27.01,56.55-.01,84.82,0,.82.37,1.75-.35,2.49-2.02,1.4-3.54,3.3-5.05,5.21-.46.68-.85,1.41-1.49,1.94-4.24,3.49-7.94,7.57-11.66,11.58-5.68,6.13-11.67,11.94-17.3,18.1-5.17,5.65-10.55,11.07-15.92,16.51-1.02,1.03-1.54,2.44-2.75,3.4-.81.64-1.57.9-2.48,1.07-.97.52-1.99.2-2.98.18-4.97-.12-9.94.24-14.91.26-1.24,0-2.49.02-3.68-.43Z"/>
  <path class="cls-10" d="M160.01.17H45.25c0-.06,0-.11,0-.17h114.76c0,.06,0,.11,0,.17Z"/>
  <path class="cls-8" d="M13.87,32.35c-.07,1.5-.2,3.01-.2,4.51-.01,36.41,0,72.81,0,109.22,0,.71-.03,1.43-.05,2.14-.74-.72-.43-1.65-.43-2.48-.02-36.95-.02-73.9,0-110.85,0-.86-.49-1.96.67-2.54Z"/>
  <path class="cls-6" d="M160.88,90.94c.03-2.78.08-5.56.09-8.34,0-26.55,0-53.1,0-79.65,0-.55.05-1.11.08-1.66.74.72.42,1.65.43,2.48.02,28.19.02,56.37,0,84.56,0,.88.44,1.94-.59,2.61Z"/>
  <path class="cls-9" d="M49.79,148.81c.79.12.66.76.66,1.28.01,9.69.02,19.37.02,29.06,0,.15-.09.3-.13.45-1.1-.14-.52-1.02-.52-1.48-.04-9.77-.03-19.54-.02-29.32Z"/>
  <path class="cls-4" d="M16.48,148.77c10.16,0,20.32,0,30.49,0-.09.31,1.04.88.12.8-9.39-.87-18.78-.09-28.17-.37-.82-.02-1.73.3-2.44-.42Z"/>
  <path class="cls-2" d="M82.65,148.77c7.19,0,14.38,0,21.57-.01.02.3.56.9-.24.77-5.99-.97-11.95.2-17.93.13-1.18-.01-2.51.32-3.41-.89Z"/>
  <path class="cls-5" d="M154.33,98.1c-.1-1.13.68-1.54,1.49-1.94-.12.94-.24,1.89-1.49,1.94Z"/>
  <path class="cls-7" d="M77.94,132.65c0-6.82-.09-13.38.05-19.94.05-2.16-.49-2.74-2.64-2.7-7.66.15-15.33.02-23,.09-1.53.02-2.12-.22-2.11-2,.06-30.86.06-61.72.01-92.58,0-1.58.4-1.97,1.93-1.97,31.6.04,63.2.04,94.8,0,1.48,0,1.8.42,1.79,1.87-.05,22.51-.04,45.02,0,67.53,0,1.24-.42,2.06-1.25,2.89-3.57,3.57-7.3,7-10.58,10.83-3.59,4.19-7.66,7.88-11.36,11.95-.97,1.07-1.97,1.52-3.43,1.5-6.57-.09-13.14.09-19.71-.11-2.3-.07-3.86.68-5.22,2.38-4.5,5.61-9.9,10.34-14.83,15.53-1.42,1.49-2.34,3.47-4.48,4.74Z"/>
  <path class="cls-1" d="M96.3,55.89c0,5.72-.06,11.45.04,17.17.03,1.4-.32,1.76-1.65,1.72-2.97-.09-5.94-.1-8.91,0-1.4.05-1.66-.51-1.66-1.79.04-11.53.05-23.05,0-34.58,0-1.56.42-2,1.96-1.92,2.73.15,5.48.15,8.2,0,1.58-.08,2.1.26,2.06,1.99-.12,5.8-.05,11.61-.04,17.41Z"/>
  <path class="cls-3" d="M130.09,55.68c0,5.8-.05,11.59.03,17.39.02,1.36-.33,1.76-1.66,1.71-3.04-.1-6.09-.07-9.14-.01-1.09.02-1.49-.28-1.48-1.46.04-11.83.03-23.66,0-35.49,0-1.09.39-1.32,1.36-1.3,3.2.05,6.41.09,9.6-.01,1.31-.04,1.31.56,1.31,1.55-.03,5.88-.02,11.75-.02,17.63Z"/>
</svg>